<?xml version="1.0" standalone="no"?>
<!DOCTYPE svg PUBLIC "-//W3C//DTD SVG 20010904//EN"
 "http://www.w3.org/TR/2001/REC-SVG-20010904/DTD/svg10.dtd">
<svg version="1.0" xmlns="http://www.w3.org/2000/svg"
 width="800.000000pt" height="600.000000pt" viewBox="0 0 800.000000 600.000000"
 preserveAspectRatio="xMidYMid meet">

<g transform="translate(0.000000,600.000000) scale(0.100000,-0.100000)"
fill="#000000" stroke="none">
<path d="M2963 3532 c-143 -3 -139 2 -102 -118 82 -266 293 -479 645 -650 72
-35 135 -64 140 -64 5 0 -14 15 -42 34 -103 70 -187 192 -214 311 -16 71 -13
201 6 265 16 56 76 174 94 185 6 3 14 14 19 23 8 16 -7 17 -207 17 -120 0
-272 -1 -339 -3z"/>
<path d="M2867 2041 c-46 -214 137 -405 497 -520 106 -34 300 -71 372 -71 l44
0 0 64 0 64 -97 6 c-321 23 -583 120 -720 269 -54 59 -75 100 -82 167 -6 52
-7 53 -14 21z"/>
<path d="M4434 1799 c-3 -6 -38 -31 -76 -56 -127 -82 -280 -133 -467 -155
l-101 -12 0 -64 0 -65 158 6 c103 4 188 13 247 27 140 32 150 36 162 73 6 17
29 83 52 145 37 102 44 131 25 101z"/>
</g>
</svg>
